Coordinates
version=1
nRows=12
nColumns=28
inDegrees=yes

Units are S.I. units (second, meters, Newtons, ...)
Angles are in degrees.

endheader
time	pelvis_tilt	pelvis_list	pelvis_rotation	pelvis_tx	pelvis_ty	pelvis_tz	hip_flexion_r	hip_adduction_r	hip_rotation_r	knee_angle_r	ankle_angle_r	subtalar_angle_r	mtp_angle_r	hip_flexion_l	hip_adduction_l	hip_rotation_l	knee_angle_l	socket_flexion	socket_adduction	socket_rotation	socket_tx	socket_ty	socket_tz	foot_flex	lumbar_extension	lumbar_bending	lumbar_rotation
      0.94166667	      1.84012950	     -4.95490084	     -2.82204230	      0.40647199	      1.03106817	      0.34004531	      2.36526040	     10.91775298	      1.76763368	    -16.45244399	     10.30604678	    -12.07276576	      2.88689141	     12.50947663	    -11.93014428	      1.94371442	    -44.62008892	     10.62792167	     10.38034846	     11.13270975	      0.07682342	      0.00917411	     -0.04316765	     -0.84331213	     -9.59111281	      4.24851187	      5.33056383
      0.94583333	      1.79345258	     -4.84048800	     -3.08381191	      0.41118796	      1.03188110	      0.34069710	      1.94900320	     10.76781936	      1.81535216	    -16.15242220	     10.25328694	    -11.82441683	      2.93222701	     13.12826960	    -11.89220410	      2.08745176	    -44.44954385	     10.43058753	     10.48963778	     11.06524112	      0.07608228	      0.00910710	     -0.04392144	     -0.84419794	     -9.59035813	      4.06396618	      5.51554028
      0.95000000	      1.73363904	     -4.72994922	     -3.31745719	      0.41588421	      1.03265551	      0.34124446	      1.53154037	     10.61796026	      1.90693964	    -15.81345584	     10.18113760	    -11.53105093	      2.98270052	     13.75253516	    -11.82161980	      2.27259763	    -44.25061900	     10.21284345	     10.58388777	     11.01760380	      0.07527792	      0.00892591	     -0.04447778	     -0.84226491	     -9.59037824	      3.88630214	      5.73325210
      0.95416667	      1.67231728	     -4.63030578	     -3.55215656	      0.42059457	      1.03340314	      0.34177499	      1.11849985	     10.47401654	      1.98098502	    -15.48428123	     10.10732574	    -11.24503410	      3.03501693	     14.35029114	    -11.75947974	      2.45502913	    -44.03512228	      9.98123733	     10.65854632	     10.95107682	      0.07429893	      0.00869824	     -0.04491852	     -0.84031167	     -9.58432358	      3.71988628	      5.95185458
      0.95833333	      1.61468443	     -4.53545861	     -3.79232705	      0.42525418	      1.03407230	      0.34227272	      0.72211806	     10.32996822	      2.04344723	    -15.17654096	     10.03826231	    -10.97864498	      3.08601139	     14.92846582	    -11.70117153	      2.62920890	    -43.78698762	      9.72157451	     10.71466630	     10.88666592	      0.07331088	      0.00827314	     -0.04542472	     -0.83346017	     -9.58485015	      3.57884533	      6.15506097
      0.96250000	      1.52994900	     -4.45042284	     -4.00457157	      0.42995259	      1.03468019	      0.34273405	      0.32742780	     10.19448611	      2.13199254	    -14.82151622	      9.95196561	    -10.66013824	      3.15297706	     15.50073242	    -11.61622246	      2.83821783	    -43.51199656	      9.43962482	     10.76044911	     10.81602527	      0.07211885	      0.00762950	     -0.04554729	     -0.82778549	     -9.56942260	      3.41867953	      6.40054075
      0.96666667	      1.46555844	     -4.36249826	     -4.23512716	      0.43460154	      1.03530966	      0.34330216	     -0.05957395	     10.06504795	      2.18754648	    -14.51395045	      9.88012022	    -10.38175380	      3.22146872	     16.04278793	    -11.55948768	      3.02514812	    -43.22515378	      9.14592900	     10.79397590	     10.72966253	      0.07080267	      0.00714777	     -0.04581752	     -0.81964172	     -9.56088650	      3.28087744	      6.61443179
      0.97083333	      1.39935480	     -4.28135512	     -4.45976227	      0.43926240	      1.03587001	      0.34379032	     -0.44528063	      9.93297748	      2.24841404	    -14.20930803	      9.81604551	    -10.11663161	      3.28879151	     16.56413943	    -11.50128863	      3.20911051	    -42.91557869	      8.83722303	     10.80743990	     10.65733040	      0.06941230	      0.00653900	     -0.04604436	     -0.81443521	     -9.55241885	      3.15436908	      6.80703546
      0.97500000	      1.33156936	     -4.21060529	     -4.67400774	      0.44392128	      1.03638214	      0.34425074	     -0.83404372	      9.81029697	      2.31496239	    -13.89238479	      9.74932485	     -9.84758843	      3.35899073	     17.06856422	    -11.44211115	      3.39339743	    -42.58542515	      8.51332994	     10.79908743	     10.58366762	      0.06793512	      0.00583686	     -0.04612200	     -0.80493639	     -9.54649245	      3.03602519	      6.99872938
      0.97916667	      1.31972195	     -4.20421533	     -4.94826427	      0.44827697	      1.03683644	      0.34472924	     -1.12321156	      9.74215470	      2.26402286	    -13.87912522	      9.74769159	     -9.81890533	      3.36798135	     17.51576669	    -11.44514623	      3.46941696	    -42.24946603	      8.20595481	     10.70984338	     10.55631856	      0.06663490	      0.00505906	     -0.04588578	     -0.76290197	     -9.67078174	      3.01738077	      7.02185439
      0.98333333	      1.21524015	     -4.09388826	     -5.08163691	      0.45318611	      1.03728323	      0.34519508	     -1.62409694	      9.59616639	      2.46278440	    -13.26787869	      9.66427947	     -9.40610434	      3.44077411	     18.06030431	    -11.36271926	      3.69491075	    -41.89057493	      7.85825280	     10.71097946	     10.51562119	      0.06502802	      0.00458587	     -0.04611746	     -0.79374700	     -9.55944842	      2.81914569	      7.26460450
      0.98750000	      1.12570640	     -4.05425472	     -5.27800956	      0.45792802	      1.03766718	      0.34554380	     -2.01313157	      9.49703587	      2.52781769	    -12.90196476	      9.55464784	     -9.11460933	      3.51368523	     18.48498165	    -11.28662386	      3.87181384	    -41.48426022	      7.47695946	     10.61200141	     10.41373592	      0.06309538	      0.00346331	     -0.04560467	     -0.76698330	     -9.51946794	      2.75718292	      7.48870080
